<svg width="21" height="20" viewBox="0 0 21 20" fill="none" xmlns="http://www.w3.org/2000/svg">
<path d="M16.5 9.16671H11.5V4.16671C11.5 3.94569 11.4122 3.73373 11.2559 3.57745C11.0996 3.42117 10.8877 3.33337 10.6667 3.33337C10.4457 3.33337 10.2337 3.42117 10.0774 3.57745C9.92113 3.73373 9.83333 3.94569 9.83333 4.16671V9.16671H4.83333C4.61232 9.16671 4.40036 9.2545 4.24408 9.41079C4.0878 9.56707 4 9.77903 4 10C4 10.2211 4.0878 10.433 4.24408 10.5893C4.40036 10.7456 4.61232 10.8334 4.83333 10.8334H9.83333V15.8334C9.83333 16.0544 9.92113 16.2663 10.0774 16.4226C10.2337 16.5789 10.4457 16.6667 10.6667 16.6667C10.8877 16.6667 11.0996 16.5789 11.2559 16.4226C11.4122 16.2663 11.5 16.0544 11.5 15.8334V10.8334H16.5C16.721 10.8334 16.933 10.7456 17.0893 10.5893C17.2455 10.433 17.3333 10.2211 17.3333 10C17.3333 9.77903 17.2455 9.56707 17.0893 9.41079C16.933 9.2545 16.721 9.16671 16.5 9.16671Z" fill="white"/>
</svg>
