<svg width="21" height="20" viewBox="0 0 21 20" fill="none" xmlns="http://www.w3.org/2000/svg">
<path d="M4.93057 16.1986C5.43751 15.0043 6.62109 14.1666 8.00033 14.1666H13.0003C14.3796 14.1666 15.5631 15.0043 16.0701 16.1986M13.8337 7.91663C13.8337 9.75757 12.3413 11.25 10.5003 11.25C8.65938 11.25 7.16699 9.75757 7.16699 7.91663C7.16699 6.07568 8.65938 4.58329 10.5003 4.58329C12.3413 4.58329 13.8337 6.07568 13.8337 7.91663ZM18.8337 9.99996C18.8337 14.6023 15.1027 18.3333 10.5003 18.3333C5.89795 18.3333 2.16699 14.6023 2.16699 9.99996C2.16699 5.39759 5.89795 1.66663 10.5003 1.66663C15.1027 1.66663 18.8337 5.39759 18.8337 9.99996Z" stroke="white" stroke-width="1.66667" stroke-linecap="round" stroke-linejoin="round"/>
</svg>
